<?xml version="1.0" standalone="no"?>
<!DOCTYPE svg PUBLIC "-//W3C//DTD SVG 20010904//EN"
 "http://www.w3.org/TR/2001/REC-SVG-20010904/DTD/svg10.dtd">
<svg version="1.0" xmlns="http://www.w3.org/2000/svg"
 width="512.000000pt" height="512.000000pt" viewBox="0 0 512.000000 512.000000"
 preserveAspectRatio="xMidYMid meet">
<metadata>
Created by potrace 1.11, written by Peter Selinger 2001-2013
</metadata>
<g transform="translate(0.000000,512.000000) scale(0.100000,-0.100000)"
fill="#000000" stroke="none">
<path d="M3585 4556 c-38 -17 -70 -48 -92 -89 -15 -28 -17 -68 -18 -327 l-1
-295 -670 -5 c-641 -5 -671 -6 -699 -24 -17 -11 -35 -24 -40 -30 -91 -96 -53
-258 69 -299 33 -11 184 -13 801 -13 737 1 761 2 799 21 22 11 54 37 70 58
l31 39 3 151 c1 84 4 162 5 175 2 18 82 -58 418 -394 l416 -415 -415 -415
c-228 -229 -416 -414 -418 -412 -2 2 -4 75 -5 163 -1 135 -4 165 -20 197 -24
47 -73 84 -124 94 -22 4 -491 7 -1042 7 -718 0 -1003 3 -1004 11 0 6 -2 139
-3 296 -2 268 -3 287 -23 325 -41 77 -120 112 -207 90 -39 -10 -63 -27 -128
-91 -371 -369 -1252 -1254 -1265 -1273 -21 -31 -25 -117 -7 -161 10 -23 237
-257 677 -698 531 -531 670 -665 704 -678 86 -33 178 2 228 87 18 31 19 54 20
329 l0 295 670 5 670 5 40 27 c22 15 48 40 57 55 62 106 1 247 -117 270 -31 6
-336 10 -800 9 -817 -2 -778 1 -831 -58 -20 -21 -55 -81 -54 -93 0 -3 0 -76 0
-162 l0 -158 -415 415 c-228 228 -415 419 -415 423 0 9 817 827 825 827 3 0 5
-66 5 -147 0 -82 5 -166 11 -188 15 -52 75 -110 126 -120 21 -4 491 -8 1046
-8 l1007 0 1 -21 c1 -12 2 -145 3 -296 2 -314 5 -328 83 -381 54 -38 121 -43
177 -13 21 10 335 317 701 683 661 661 664 664 676 718 24 108 60 65 -674 801
-368 368 -679 672 -699 683 -43 22 -110 24 -153 5z"/>
</g>
</svg>
