<?xml version="1.0" standalone="no"?>
<!DOCTYPE svg PUBLIC "-//W3C//DTD SVG 20010904//EN"
 "http://www.w3.org/TR/2001/REC-SVG-20010904/DTD/svg10.dtd">
<svg version="1.0" xmlns="http://www.w3.org/2000/svg"
 width="477.000000pt" height="477.000000pt" viewBox="0 0 477.000000 477.000000"
 preserveAspectRatio="xMidYMid meet">
<metadata>
Created by potrace 1.11, written by Peter Selinger 2001-2013
</metadata>
<g transform="translate(0.000000,477.000000) scale(0.100000,-0.100000)"
fill="#000000" stroke="none">
<path d="M3385 4260 c-22 -3 -50 -11 -61 -18 -34 -18 -72 -69 -84 -110 -5 -21
-10 -148 -10 -294 l0 -257 -615 0 c-608 0 -615 0 -653 -21 -53 -30 -85 -80
-89 -143 -5 -62 16 -107 71 -152 l38 -30 742 0 742 0 37 25 c20 13 46 42 58
64 20 36 22 54 23 188 0 145 0 147 19 130 27 -23 747 -744 747 -747 0 -1 -754
-755 -763 -762 -2 -1 -3 64 -3 145 -1 157 -10 193 -58 236 -53 47 -27 46
-1036 46 l-950 0 0 259 c0 142 -3 273 -6 290 -4 18 -25 52 -48 77 -36 39 -48
46 -92 51 -30 3 -67 0 -89 -7 -29 -10 -173 -148 -662 -637 -343 -343 -628
-635 -633 -649 -14 -37 -12 -107 4 -145 9 -21 251 -269 638 -655 567 -565 627
-622 666 -632 64 -15 116 -1 168 45 47 41 49 54 54 348 l5 280 610 1 c416 1
619 5 637 12 38 15 82 60 97 100 21 51 9 126 -26 170 -57 71 -11 67 -802 70
-500 1 -725 -1 -748 -9 -46 -15 -93 -56 -110 -96 -9 -23 -13 -78 -14 -178 0
-80 -1 -145 -3 -145 -2 0 -176 172 -386 382 l-381 382 383 383 c211 211 384
383 385 383 1 0 2 -70 2 -156 1 -153 1 -156 28 -195 16 -21 47 -48 70 -60 42
-20 50 -21 993 -21 l950 0 0 -266 c0 -238 2 -271 19 -307 37 -80 115 -120 201
-102 42 8 79 42 654 615 334 334 621 625 637 646 24 33 29 49 29 98 0 32 -6
71 -14 86 -13 24 -1255 1272 -1266 1272 -3 0 -19 4 -35 8 -17 4 -48 5 -70 2z"/>
</g>
</svg>
