<svg viewBox="0 0 295 46" xmlns="http://www.w3.org/2000/svg">
<path d="M32.8086 30.4629C32.8086 31.0254 32.709 31.6289 32.5098 32.2734C32.3223 32.918 32.0059 33.5156 31.5605 34.0664C31.127 34.6172 30.5586 35.0801 29.8555 35.4551C29.1523 35.8184 28.291 36 27.2715 36H9.92188C9.59375 36 9.28906 35.9414 9.00781 35.8242C8.72656 35.707 8.48047 35.5488 8.26953 35.3496C8.07031 35.1387 7.91211 34.8926 7.79492 34.6113C7.67773 34.3301 7.61914 34.0254 7.61914 33.6973V13.0957C7.61914 12.7793 7.67773 12.4805 7.79492 12.1992C7.91211 11.918 8.07031 11.6719 8.26953 11.4609C8.48047 11.25 8.72656 11.0859 9.00781 10.9688C9.28906 10.8516 9.59375 10.793 9.92188 10.793H25.2148C25.7773 10.793 26.3809 10.8926 27.0254 11.0918C27.6699 11.291 28.2676 11.6133 28.8184 12.0586C29.3809 12.4922 29.8438 13.0605 30.207 13.7637C30.582 14.4668 30.7695 15.3281 30.7695 16.3477V17.209C30.7695 18.0176 30.6348 18.8906 30.3652 19.8281C30.0957 20.7539 29.6621 21.6328 29.0645 22.4648C29.5801 22.7812 30.0605 23.1621 30.5059 23.6074C30.9629 24.0527 31.3613 24.5684 31.7012 25.1543C32.041 25.7402 32.3105 26.4023 32.5098 27.1406C32.709 27.8789 32.8086 28.6934 32.8086 29.584V30.4629ZM28.2383 29.584C28.2383 28.9863 28.1445 28.4531 27.957 27.9844C27.7695 27.5039 27.5059 27.0938 27.166 26.7539C26.8262 26.4141 26.416 26.1562 25.9355 25.9805C25.4551 25.793 24.916 25.6992 24.3184 25.6992H14.0176V21.0938H22.2617C22.8594 21.0938 23.3984 21.0059 23.8789 20.8301C24.3594 20.6426 24.7695 20.3789 25.1094 20.0391C25.4492 19.6992 25.707 19.2949 25.8828 18.8262C26.0703 18.3457 26.1641 17.8066 26.1641 17.209V16.3477C26.1641 15.6914 25.8477 15.3633 25.2148 15.3633H12.1895V31.4297H27.2715C27.3535 31.4297 27.4531 31.4238 27.5703 31.4121C27.6875 31.4004 27.793 31.3652 27.8867 31.3066C27.9805 31.248 28.0625 31.1484 28.1328 31.0078C28.2031 30.8672 28.2383 30.6738 28.2383 30.4277V29.584ZM58.0409 29.584C58.0409 30.3691 57.9413 31.0781 57.7421 31.7109C57.5429 32.332 57.2792 32.8828 56.9511 33.3633C56.623 33.832 56.2421 34.2363 55.8085 34.5762C55.3749 34.9043 54.9179 35.1738 54.4374 35.3848C53.9687 35.5957 53.4882 35.7539 52.996 35.8594C52.5155 35.9531 52.0585 36 51.6249 36H43.3808C42.748 36 42.0566 35.8887 41.3066 35.666C40.5566 35.4434 39.8593 35.0801 39.2148 34.5762C38.582 34.0605 38.0487 33.3984 37.6152 32.5898C37.1933 31.7695 36.9823 30.7676 36.9823 29.584V23.3965C36.9823 22.2246 37.1933 21.2344 37.6152 20.4258C38.0487 19.6055 38.582 18.9434 39.2148 18.4395C39.8593 17.9238 40.5566 17.5547 41.3066 17.332C42.0566 17.1094 42.748 16.998 43.3808 16.998H51.6249C52.7968 16.998 53.7929 17.209 54.6132 17.6309C55.4335 18.0527 56.0956 18.5859 56.5995 19.2305C57.1034 19.8633 57.4667 20.5547 57.6894 21.3047C57.9237 22.0547 58.0409 22.752 58.0409 23.3965V29.584ZM53.4706 23.4316C53.4706 22.7988 53.3124 22.3301 52.996 22.0254C52.6796 21.7207 52.2226 21.5684 51.6249 21.5684H43.4159C42.8066 21.5684 42.3437 21.7266 42.0273 22.043C41.7109 22.3477 41.5527 22.7988 41.5527 23.3965V29.584C41.5527 30.1816 41.7109 30.6387 42.0273 30.9551C42.3437 31.2715 42.8066 31.4297 43.4159 31.4297H51.6249C52.246 31.4297 52.7089 31.2715 53.0136 30.9551C53.3183 30.6387 53.4706 30.1816 53.4706 29.584V23.4316ZM79.6522 21.5684H69.369C68.7479 21.5684 68.2791 21.7266 67.9627 22.043C67.6463 22.3477 67.4881 22.7988 67.4881 23.3965V36H62.9178V23.3965C62.9178 22.6113 63.0174 21.9082 63.2166 21.2871C63.4159 20.666 63.6795 20.1211 64.0077 19.6523C64.3475 19.1719 64.7342 18.7676 65.1678 18.4395C65.6014 18.0996 66.0526 17.8242 66.5213 17.6133C67.0018 17.4023 67.4823 17.25 67.9627 17.1562C68.4549 17.0508 68.912 16.998 69.3338 16.998H79.6522V21.5684ZM104.533 29.584C104.533 30.3691 104.433 31.0781 104.234 31.7109C104.035 32.332 103.771 32.8828 103.443 33.3633C103.115 33.832 102.734 34.2363 102.301 34.5762C101.867 34.9043 101.41 35.1738 100.929 35.3848C100.461 35.5957 99.9802 35.7539 99.488 35.8594C99.0076 35.9531 98.5505 36 98.117 36H89.8728C89.0877 36 88.3845 35.9004 87.7634 35.7012C87.1423 35.502 86.5916 35.2383 86.1111 34.9102C85.6423 34.5703 85.238 34.1836 84.8982 33.75C84.5701 33.3164 84.3005 32.8652 84.0896 32.3965C83.8787 31.916 83.7205 31.4355 83.615 30.9551C83.5212 30.4629 83.4744 30.0059 83.4744 29.584V23.3965C83.4744 22.2246 83.6853 21.2344 84.1072 20.4258C84.5408 19.6055 85.074 18.9434 85.7068 18.4395C86.3513 17.9238 87.0486 17.5547 87.7986 17.332C88.5486 17.1094 89.24 16.998 89.8728 16.998H98.117V21.5684H89.908C89.2986 21.5684 88.8357 21.7266 88.5193 22.043C88.2029 22.3477 88.0447 22.7988 88.0447 23.3965V29.5488C88.0447 30.1699 88.197 30.6387 88.5017 30.9551C88.8181 31.2715 89.2752 31.4297 89.8728 31.4297H98.117C98.738 31.4297 99.2009 31.2715 99.5056 30.9551C99.8103 30.6387 99.9627 30.1816 99.9627 29.584V8.96484H104.533V29.584ZM130.416 23.291C130.416 23.9238 130.304 24.6094 130.082 25.3477C129.859 26.0742 129.496 26.7539 128.992 27.3867C128.5 28.0078 127.849 28.5293 127.041 28.9512C126.244 29.373 125.271 29.584 124.123 29.584H115.879V25.2422H124.123C124.744 25.2422 125.224 25.0547 125.564 24.6797C125.904 24.293 126.074 23.8184 126.074 23.2559C126.074 22.6582 125.881 22.1895 125.494 21.8496C125.119 21.5098 124.662 21.3398 124.123 21.3398H115.879C115.257 21.3398 114.777 21.5332 114.437 21.9199C114.097 22.2949 113.927 22.7637 113.927 23.3262V29.707C113.927 30.3164 114.115 30.791 114.49 31.1309C114.877 31.4707 115.351 31.6406 115.914 31.6406H124.123V36H115.879C115.246 36 114.56 35.8887 113.822 35.666C113.095 35.4434 112.416 35.0859 111.783 34.5938C111.162 34.0898 110.64 33.4395 110.218 32.6426C109.797 31.834 109.586 30.8555 109.586 29.707V23.291C109.586 22.6582 109.697 21.9785 109.92 21.252C110.142 20.5137 110.5 19.834 110.992 19.2129C111.496 18.5801 112.146 18.0527 112.943 17.6309C113.752 17.209 114.73 16.998 115.879 16.998H124.123C124.756 16.998 125.435 17.1094 126.162 17.332C126.9 17.5547 127.58 17.918 128.201 18.4219C128.834 18.9141 129.361 19.5645 129.783 20.373C130.205 21.1699 130.416 22.1426 130.416 23.291ZM151.201 21.5684H140.918C140.296 21.5684 139.828 21.7266 139.511 22.043C139.195 22.3477 139.037 22.7988 139.037 23.3965V36H134.466V23.3965C134.466 22.6113 134.566 21.9082 134.765 21.2871C134.964 20.666 135.228 20.1211 135.556 19.6523C135.896 19.1719 136.283 18.7676 136.716 18.4395C137.15 18.0996 137.601 17.8242 138.07 17.6133C138.55 17.4023 139.031 17.25 139.511 17.1562C140.004 17.0508 140.461 16.998 140.882 16.998H151.201V21.5684Z" />
<path d="M220.773 21.3398C220.773 22.3828 220.645 23.3145 220.387 24.1348C220.129 24.9551 219.777 25.6816 219.332 26.3145C218.898 26.9355 218.395 27.4688 217.82 27.9141C217.246 28.3594 216.643 28.7227 216.01 29.0039C215.389 29.2852 214.756 29.4902 214.111 29.6191C213.479 29.748 212.881 29.8125 212.318 29.8125H201.982V25.2422H212.318C212.904 25.1953 213.432 25.0781 213.9 24.8906C214.381 24.6914 214.791 24.4277 215.131 24.0996C215.471 23.7715 215.734 23.3789 215.922 22.9219C216.109 22.4531 216.203 21.9258 216.203 21.3398V19.2656C216.145 18.6914 216.021 18.1641 215.834 17.6836C215.646 17.2031 215.389 16.793 215.061 16.4531C214.744 16.1133 214.357 15.8496 213.9 15.6621C213.443 15.4629 212.916 15.3633 212.318 15.3633H202.018C201.408 15.3633 200.945 15.5215 200.629 15.8379C200.312 16.1543 200.154 16.6113 200.154 17.209V36H195.584V17.209C195.584 16.0371 195.795 15.041 196.217 14.2207C196.65 13.4004 197.184 12.7383 197.816 12.2344C198.461 11.7305 199.158 11.3672 199.908 11.1445C200.658 10.9102 201.35 10.793 201.982 10.793H212.318C213.35 10.793 214.275 10.9277 215.096 11.1973C215.916 11.4551 216.637 11.8066 217.258 12.252C217.891 12.6855 218.424 13.1895 218.857 13.7637C219.303 14.3379 219.666 14.9414 219.947 15.5742C220.24 16.1953 220.451 16.8281 220.58 17.4727C220.709 18.1055 220.773 18.7031 220.773 19.2656V21.3398ZM244.283 29.707C244.283 30.3398 244.172 31.0254 243.949 31.7637C243.726 32.4902 243.363 33.1699 242.859 33.8027C242.367 34.4238 241.717 34.9453 240.908 35.3672C240.111 35.7891 239.139 36 237.99 36H229.746C229.113 36 228.428 35.8887 227.689 35.666C226.963 35.4434 226.283 35.0859 225.65 34.5938C225.029 34.0898 224.508 33.4395 224.086 32.6426C223.664 31.834 223.453 30.8555 223.453 29.707C223.453 29.0742 223.564 28.3887 223.787 27.6504C224.01 26.9121 224.367 26.2324 224.859 25.6113C225.363 24.9785 226.014 24.4512 226.81 24.0293C227.619 23.6074 228.598 23.3965 229.746 23.3965H237.99V27.7559H229.746C229.125 27.7559 228.644 27.9492 228.305 28.3359C227.965 28.7109 227.795 29.1797 227.795 29.7422C227.795 30.3398 227.988 30.8086 228.375 31.1484C228.773 31.4766 229.242 31.6406 229.781 31.6406H237.99C238.611 31.6406 239.092 31.4531 239.432 31.0781C239.771 30.7031 239.941 30.2344 239.941 29.6719V23.291C239.941 22.6934 239.754 22.2188 239.379 21.8672C239.016 21.5156 238.553 21.3398 237.99 21.3398H227.953V16.998H237.99C238.623 16.998 239.303 17.1094 240.029 17.332C240.767 17.5547 241.447 17.918 242.068 18.4219C242.701 18.9141 243.228 19.5645 243.65 20.373C244.072 21.1699 244.283 22.1426 244.283 23.291V29.707ZM267.635 29.584C267.635 30.3691 267.535 31.0781 267.336 31.7109C267.137 32.332 266.873 32.8828 266.545 33.3633C266.217 33.832 265.836 34.2363 265.402 34.5762C264.969 34.9043 264.512 35.1738 264.031 35.3848C263.562 35.5957 263.082 35.7539 262.59 35.8594C262.109 35.9531 261.652 36 261.219 36H248.844V31.4297H261.183C261.805 31.4297 262.273 31.2715 262.59 30.9551C262.906 30.6387 263.064 30.1816 263.064 29.584C263.006 28.3652 262.39 27.7559 261.219 27.7559H254.135C253.127 27.7559 252.271 27.5801 251.568 27.2285C250.865 26.877 250.291 26.4375 249.846 25.9102C249.412 25.3828 249.096 24.8145 248.896 24.2051C248.709 23.5957 248.615 23.0273 248.615 22.5C248.615 21.4805 248.797 20.625 249.16 19.9336C249.523 19.2305 249.98 18.6621 250.531 18.2285C251.082 17.7949 251.68 17.4844 252.324 17.2969C252.969 17.0977 253.572 16.998 254.135 16.998H265.367V21.5684H254.17C253.935 21.5684 253.748 21.5977 253.607 21.6562C253.478 21.7031 253.379 21.7734 253.308 21.8672C253.25 21.9492 253.215 22.043 253.203 22.1484C253.191 22.2422 253.185 22.3359 253.185 22.4297C253.197 22.6172 253.232 22.7637 253.291 22.8691C253.349 22.9746 253.42 23.0508 253.502 23.0977C253.596 23.1445 253.695 23.1738 253.801 23.1855C253.918 23.1855 254.029 23.1855 254.135 23.1855H261.219C262.39 23.1855 263.387 23.3965 264.207 23.8184C265.027 24.2402 265.689 24.7734 266.193 25.418C266.697 26.0508 267.06 26.7422 267.283 27.4922C267.517 28.2422 267.635 28.9395 267.635 29.584ZM290.301 29.584C290.301 30.3691 290.201 31.0781 290.002 31.7109C289.802 32.332 289.539 32.8828 289.211 33.3633C288.883 33.832 288.502 34.2363 288.068 34.5762C287.635 34.9043 287.177 35.1738 286.697 35.3848C286.228 35.5957 285.748 35.7539 285.256 35.8594C284.775 35.9531 284.318 36 283.885 36H271.51V31.4297H283.849C284.47 31.4297 284.939 31.2715 285.256 30.9551C285.572 30.6387 285.73 30.1816 285.73 29.584C285.672 28.3652 285.056 27.7559 283.885 27.7559H276.801C275.793 27.7559 274.937 27.5801 274.234 27.2285C273.531 26.877 272.957 26.4375 272.511 25.9102C272.078 25.3828 271.761 24.8145 271.562 24.2051C271.375 23.5957 271.281 23.0273 271.281 22.5C271.281 21.4805 271.463 20.625 271.826 19.9336C272.189 19.2305 272.646 18.6621 273.197 18.2285C273.748 17.7949 274.345 17.4844 274.99 17.2969C275.635 17.0977 276.238 16.998 276.801 16.998H288.033V21.5684H276.836C276.601 21.5684 276.414 21.5977 276.273 21.6562C276.144 21.7031 276.045 21.7734 275.974 21.8672C275.916 21.9492 275.881 22.043 275.869 22.1484C275.857 22.2422 275.851 22.3359 275.851 22.4297C275.863 22.6172 275.898 22.7637 275.957 22.8691C276.015 22.9746 276.086 23.0508 276.168 23.0977C276.261 23.1445 276.361 23.1738 276.467 23.1855C276.584 23.1855 276.695 23.1855 276.801 23.1855H283.885C285.056 23.1855 286.052 23.3965 286.873 23.8184C287.693 24.2402 288.355 24.7734 288.859 25.418C289.363 26.0508 289.726 26.7422 289.949 27.4922C290.183 28.2422 290.301 28.9395 290.301 29.584Z" />
<g clip-path="url(#clip0)">
<path d="M190.624 18.3766L181.623 9.37644C181.121 8.8744 180.307 8.87455 179.805 9.37674C179.564 9.61781 179.429 9.94462 179.429 10.2855V14.1427H170.429C169.718 14.1427 169.143 14.7184 169.143 15.4285C169.143 16.1386 169.718 16.7142 170.429 16.7142H180.714C181.425 16.7142 182 16.1386 182 15.4285V13.3892L187.897 19.2856L182 25.182V23.1428C182 22.4327 181.425 21.8571 180.714 21.8571H166.571V17.9998C166.571 17.2897 165.995 16.7142 165.285 16.7144C164.945 16.7145 164.618 16.8498 164.377 17.0908L155.376 26.091C154.875 26.5931 154.875 27.407 155.376 27.909L164.377 36.9092C164.618 37.1503 164.945 37.2859 165.286 37.2859C165.455 37.2865 165.622 37.2533 165.778 37.1882C166.258 36.989 166.571 36.5202 166.571 36.0002V32.143H175.571C176.282 32.143 176.857 31.5673 176.857 30.8572C176.857 30.1471 176.282 29.5715 175.571 29.5715H165.286C164.576 29.5715 164 30.1471 164 30.8572V32.8964L158.103 27L164 21.1036V23.1428C164 23.8529 164.576 24.4286 165.286 24.4286H179.429V28.2858C179.429 28.9959 180.005 29.5714 180.715 29.5712C181.056 29.5712 181.382 29.4358 181.623 29.1948L190.624 20.1946C191.126 19.6925 191.126 18.8786 190.624 18.3766Z" />
</g>
<defs>
<clipPath id="clip0">
<rect width="36" height="36" transform="translate(155 5)"/>
</clipPath>
</defs>
</svg>
