<svg width="300" height="236" viewBox="0 0 300 236" fill="none" xmlns="http://www.w3.org/2000/svg">
<path d="M296.863 78.1383L221.862 3.13696C217.677 -1.0467 210.893 -1.04544 206.709 3.13947C204.701 5.14843 203.573 7.87182 203.572 10.7126V42.8559H128.571C122.653 42.8559 117.856 47.653 117.856 53.5706C117.856 59.4882 122.653 64.2852 128.571 64.2852H214.287C220.204 64.2852 225.002 59.4882 225.002 53.5706V36.5767L274.138 85.7133L225.002 134.85V117.857C225.002 111.939 220.204 107.142 214.287 107.142H96.4276V74.9986C96.4263 69.081 91.6281 64.2852 85.7111 64.2865C82.8709 64.2871 80.1469 65.4153 78.1379 67.4236L3.13727 142.425C-1.04576 146.609 -1.04576 153.391 3.13727 157.575L78.1386 232.576C80.1475 234.586 82.8722 235.715 85.7136 235.716C87.1217 235.72 88.5173 235.443 89.8169 234.902C93.8197 233.242 96.4289 229.335 96.4276 225.001V192.858H171.429C177.347 192.858 182.144 188.061 182.144 182.143C182.144 176.226 177.347 171.429 171.429 171.429H85.7136C79.7959 171.429 74.9989 176.226 74.9989 182.143V199.137L25.8623 150L74.9989 100.863V117.857C74.9989 123.774 79.7959 128.571 85.7136 128.571H203.572V160.715C203.573 166.632 208.372 171.428 214.289 171.427C217.129 171.426 219.853 170.298 221.862 168.29L296.863 93.2883C301.046 89.104 301.046 82.3219 296.863 78.1383Z" fill="white"/>
</svg>
